<svg id="Layer_1" data-name="Layer 1" xmlns="http://www.w3.org/2000/svg" viewBox="0 0 252.92 249.45"><defs><style>.cls-1{fill:#241f21;}</style></defs><title>Artboard 12</title><path class="cls-1" d="M43,128.1a7.87,7.87,0,0,0,.94-3.78,7.25,7.25,0,1,0-7.24,7.56,7,7,0,0,0,3.87-1.13l-4.79-5.42L38.43,123Zm119.64-1.41h5.61l-2.8-6.53Zm48.53,4.88h3.15a6.76,6.76,0,0,0,5.64-2.46,8,8,0,0,0,0-9.58,6.75,6.75,0,0,0-5.64-2.45h-3.15Zm10.27,1.91c-1.8,1.33-4.1,2.08-7.6,2.08h-6.93v-22h6.93c3.5,0,5.8.75,7.6,2.08a11.32,11.32,0,0,1,0,17.89m-21.27,2.08h-3L184.86,121.2v14.36h-4.25v-22h3l12.28,14.36V113.51h4.26Zm-23.76,0h-4.44l-2.08-4.88H161l-2.07,4.88h-4.45l9.45-22h3Zm-35-16.19c0,3.56,10.18,2.46,10.18,9.89,0,3.91-3.5,6.62-7.47,6.62a11.77,11.77,0,0,1-8-3.31l2.77-2.9a7.28,7.28,0,0,0,5.2,2.43c1.89,0,3.22-1.17,3.22-2.78,0-2.83-4.1-3.18-7.06-4.91a5.57,5.57,0,0,1-3.12-5c0-3.94,3.62-6.2,7.28-6.2a10.22,10.22,0,0,1,6.39,2.07l-2.2,3.15a5.93,5.93,0,0,0-3.81-1.44c-1.61,0-3.41.69-3.41,2.39m-18.46,4.22,10.87,12H128.3l-9.67-10.83v10.83h-4.26v-22h4.26v8.82l8.34-8.82h5.61Zm-30.06,1a7.42,7.42,0,0,0,7.53,7.56,7.73,7.73,0,0,0,6.24-3.06l2.93,2.61a11.57,11.57,0,0,1-9.26,4.23c-6.87,0-11.69-5-11.69-11.34s4.75-11.34,11.62-11.34a11.48,11.48,0,0,1,8.07,3.14l-2.74,2.9a7.59,7.59,0,0,0-5.36-2.26,7.35,7.35,0,0,0-7.34,7.56m-9.42,11H79.14v-22H83.4Zm-10.85-9.29c0,3.37-1,5.7-2.83,7.34a10.77,10.77,0,0,1-13.23,0c-1.83-1.64-2.84-4-2.84-7.34V113.51H57.9v13.07a5.2,5.2,0,0,0,1.45,4.1,5.66,5.66,0,0,0,7.5,0,5.16,5.16,0,0,0,1.45-4.1V113.51h4.25Zm-26.72,5.29,3.6,4H44.61L43.22,134a11.84,11.84,0,0,1-6.55,1.89,11.34,11.34,0,1,1,0-22.68,11.14,11.14,0,0,1,11.5,11.34,11.49,11.49,0,0,1-2.34,7m171.54,76.57a124.64,124.64,0,1,0-6.68,6.88l34.45,34.44h7.78l-38.37-38.36L184.77,181.3l2.89-2.88Z"/></svg>